# xmcd
#
# Track frame offsets:
#	150
#	11981
#	27261
#	42482
#	61127
#	82461
#	99590
#	117375
#	132804
#	152204
#	166347
#	184530
#
# Disc length: 3358 seconds
#
# Revision: 0
# Processed by: cddbd v1.5.2PL0 Copyright (c) Steve Scherf et al.
# Submitted via: audiograbber 1.83.01
#
DISCID=a10d1c0c
DTITLE=Wheatus - Suck Fony
DYEAR=2005
DGENRE=Rock
TTITLE0=The Deck
TTITLE1=Lemonade
TTITLE2=Hit Me With Your Best Shot
TTITLE3=Anyway
TTITLE4=Freak On
TTITLE5=William McGovern
TTITLE6=American in Amsterdam
TTITLE7=Fair Weather Friend
TTITLE8=Randall
TTITLE9=Whole Amoeba
TTITLE10=The Song That I Wrote When You Dissed Me
TTITLE11=Dynomite Satchel of Pain
EXTD=
EXTT0=
EXTT1=
EXTT2=
EXTT3=
EXTT4=
EXTT5=
EXTT6=
EXTT7=
EXTT8=
EXTT9=
EXTT10=
EXTT11=
PLAYORDER=
